<svg xmlns="http://www.w3.org/2000/svg" version="1.1" xmlns:xlink="http://www.w3.org/1999/xlink" xmlns:svgjs="http://svgjs.dev/svgjs" width="100%" height="100%" viewBox="0 0 1000 600"><rect width="1000" height="600" x="0" y="0" fill="#212529"/><g><circle r="166.66666666666666" cx="634.4715372721354" cy="335.61921330471336" fill="#212529" transform="matrix(0.851902905531053,0,0,0.851902905531053,-40.50816194984813,14.085004552966666)"/><path d="M238.17825898839695 358.1750698930193L224.7030240183539 358.1750698930193L224.7030240183539 389.64156452576856Q224.7030240183539 396.26992334887086 226.11124677197998 399.2563267746642Q227.49518982295737 402.2184504978088 230.99146700437396 403.26247771170404Q234.48774418579055 404.330784628248 242.35436784397788 404.6707004653301L242.35436784397788 404.6707004653301L242.35436784397788 408.1669776467468Q233.27375905335424 407.63282418847473 216.66644244162546 407.63282418847473L216.66644244162546 407.63282418847473Q201.63730650206392 407.63282418847473 194.28055659949987 408.1669776467468L194.28055659949987 408.1669776467468L194.28055659949987 404.6707004653301Q200.5932792881687 404.330784628248 203.4582842007184 403.26247771170404Q206.3475688159168 402.2184504978088 207.39159602981206 399.2563267746642Q208.45990294635598 396.26992334887086 208.45990294635598 389.64156452576856L208.45990294635598 389.64156452576856L208.45990294635598 302.938746367167Q208.45990294635598 296.2861078414161 207.39159602981206 293.3239841182715Q206.3475688159168 290.3375806924781 203.4582842007184 289.2935534785829Q200.5932792881687 288.2495262646877 194.28055659949987 287.88533072495676L194.28055659949987 287.88533072495676L194.28055659949987 284.3890535435402Q201.63730650206392 284.92320700181216 215.62241522773024 284.92320700181216L215.62241522773024 284.92320700181216L234.48774418579055 284.7532490832711Q237.81406344866605 284.58329116473 242.0144520068957 284.58329116473L242.0144520068957 284.58329116473Q262.4579616371233 284.58329116473 273.31098872110385 293.9309766844896Q284.1397361024358 303.2786622042492 284.1397361024358 319.0119095206238L284.1397361024358 319.0119095206238Q284.1397361024358 328.6266717695195 279.86650843626 337.4644835336559Q275.56900106743535 346.27801559514353 265.3472462523216 352.22654274408137Q255.12549143720787 358.1750698930193 238.17825898839695 358.1750698930193L238.17825898839695 358.1750698930193ZM237.64410553012496 287.88533072495676Q232.229731839459 287.88533072495676 229.51040514280166 289.1235955600418Q226.81535814879305 290.3375806924781 225.7470512322491 293.49394203681254Q224.7030240183539 296.62602367849826 224.7030240183539 302.938746367167L224.7030240183539 302.938746367167L224.7030240183539 354.6787927116028L236.43012039768865 354.6787927116028Q253.54731076504066 354.6787927116028 260.10283048019676 345.5010651103843Q266.6583501953529 336.32333750916575 266.6583501953529 320.9300060298732L266.6583501953529 320.9300060298732Q266.6583501953529 303.9827735810623 259.9328725616557 295.9461920043339Q253.20739492795852 287.88533072495676 237.64410553012496 287.88533072495676L237.64410553012496 287.88533072495676ZM354.06527973076743 281.96108327866756Q370.67259634249626 281.96108327866756 383.17664320659026 289.46351139712397Q395.68069007068425 296.99021921822913 402.5761256229225 311.24240467303144Q409.49584087780954 325.47031042518506 409.49584087780954 345.2339883812482L409.49584087780954 345.2339883812482Q409.49584087780954 364.4635128790394 402.40616770438146 379.3226909000599Q395.3164945309534 394.1818689210804 382.6424897483182 402.3884084163499Q369.96848496568316 410.6192276142681 353.89532181222637 410.6192276142681L353.89532181222637 410.6192276142681Q337.28800520049754 410.6192276142681 324.78395833640354 403.092519793163Q312.27991147230955 395.5900916747065 305.3844759200713 381.3379062199042Q298.489040367833 367.0857207651019 298.489040367833 347.32204280903875L298.489040367833 347.32204280903875Q298.489040367833 328.09251831124755 305.55443383861234 313.23334029022703Q312.6441070120404 298.3741622692065 325.3181117946756 290.16762277393707Q337.99211657731064 281.96108327866756 354.06527973076743 281.96108327866756L354.06527973076743 281.96108327866756ZM353.36116835395444 285.0931649203533Q342.1925051355403 285.0931649203533 333.6946092084861 292.8869494705944Q325.2209929840807 300.6564543181868 320.5835697781739 314.6415630438531Q315.9704262749159 328.6266717695195 315.9704262749159 346.6422111348744L315.9704262749159 346.6422111348744Q315.9704262749159 364.80342871612163 321.11772323644584 378.6185795232468Q326.2650201979759 392.4337303303721 335.0057131515173 399.9604381514772Q343.7464061050588 407.46286626993367 354.59943318903936 407.46286626993367L354.59943318903936 407.46286626993367Q365.79237611010217 407.46286626993367 374.2659923345077 399.69336142234124Q382.7396085589131 391.89957687210017 387.3770317648199 377.9144681464338Q392.01445497072655 363.92935942076747 392.01445497072655 345.9380997580613L392.01445497072655 345.9380997580613Q392.01445497072655 327.7526024741653 386.84287830654785 313.93745166704Q381.6955813450179 300.1223008599148 372.9548883914765 292.6198727414584Q364.214195437935 285.0931649203533 353.36116835395444 285.0931649203533L353.36116835395444 285.0931649203533ZM514.1899186991172 385.78109180462116Q514.1899186991172 395.7600495932476 515.4281835342022 408.1669776467468L515.4281835342022 408.1669776467468Q503.53112923632625 407.63282418847473 475.3909538664526 407.63282418847473L475.3909538664526 407.63282418847473Q441.83640480591293 407.63282418847473 424.69493473591217 408.1669776467468L424.69493473591217 408.1669776467468L424.69493473591217 404.6707004653301Q430.98337772193224 404.330784628248 433.8726623371307 403.26247771170404Q436.76194695232914 402.2184504978088 437.80597416622436 399.2563267746642Q438.8500013801196 396.26992334887086 438.8500013801196 389.64156452576856L438.8500013801196 389.64156452576856L438.8500013801196 302.938746367167Q438.8500013801196 296.2861078414161 437.80597416622436 293.3239841182715Q436.76194695232914 290.3375806924781 433.8726623371307 289.2935534785829Q430.98337772193224 288.2495262646877 424.69493473591217 287.88533072495676L424.69493473591217 287.88533072495676L424.69493473591217 284.3890535435402Q441.83640480591293 284.92320700181216 475.3909538664526 284.92320700181216L475.3909538664526 284.92320700181216Q501.07887926880494 284.92320700181216 511.93190635278563 284.3890535435402L511.93190635278563 284.3890535435402Q510.6936415177006 295.9461920043339 510.6936415177006 305.0268007949575L510.6936415177006 305.0268007949575Q510.6936415177006 311.8493972392496 511.22779497597253 315.8555481762894L511.22779497597253 315.8555481762894L507.19736433628395 315.8555481762894Q505.9833792038477 304.49264733668554 504.0652826945983 299.0054345380734Q502.1471861853489 293.49394203681254 497.5826020873884 290.94457325869627Q493.04229769207654 288.41948418322875 483.7917309829119 288.41948418322875L483.7917309829119 288.41948418322875L469.2724687989736 288.41948418322875Q462.9840258129535 288.41948418322875 460.09474119775507 289.3906722891778Q457.2054565825566 290.3375806924781 456.1614293686614 293.3239841182715Q455.1174021547662 296.2861078414161 455.1174021547662 302.938746367167L455.1174021547662 302.938746367167L455.1174021547662 344.189961167353L466.6502609129111 344.189961167353Q472.7687459803901 344.189961167353 476.0950652432657 341.3006765521545Q479.4213845061412 338.4113919369562 480.53825082798255 334.4780801078625Q481.6793968524727 330.54476827876886 482.3835082292858 324.5962411298309L482.3835082292858 324.5962411298309L482.9176616875577 321.09996394841437L486.92381262459753 321.09996394841437Q486.41393886897436 328.4567138509784 486.41393886897436 337.53732264160203L486.41393886897436 337.53732264160203L486.41393886897436 345.9380997580613Q486.41393886897436 354.84875063014385 487.4579660828696 370.7519558650596L487.4579660828696 370.7519558650596L483.427535443181 370.7519558650596Q483.25757752463994 369.5379707326232 482.3835082292858 362.27833964065405Q481.5094389339316 355.0187085486849 477.57612710483795 351.3524734487272Q473.6428152757443 347.6862383487696 466.6502609129111 347.6862383487696L466.6502609129111 347.6862383487696L455.1174021547662 347.6862383487696L455.1174021547662 389.64156452576856Q455.1174021547662 396.26992334887086 456.1614293686614 399.2563267746642Q457.2054565825566 402.2184504978088 460.09474119775507 403.1896386037579Q462.9840258129535 404.1365470070582 469.2724687989736 404.1365470070582L469.2724687989736 404.1365470070582L482.04359239220355 404.1365470070582Q492.8723397735355 404.1365470070582 498.5537901933375 401.2715420945085Q504.23524061313947 398.38225747931006 506.85744849920184 391.9966956826951Q509.4796563852642 385.61113388608 510.6936415177006 373.2042058325809L510.6936415177006 373.2042058325809L514.7240721573892 373.2042058325809Q514.1899186991172 377.9144681464338 514.1899186991172 385.78109180462116L514.1899186991172 385.78109180462116ZM501.61303272707687 260.61922465043716L501.61303272707687 264.9895711272079L440.0882662152046 264.9895711272079L440.0882662152046 260.61922465043716L501.61303272707687 260.61922465043716ZM627.3090533395329 284.3890535435402Q626.0707885044478 296.820261299688 626.0707885044478 306.7749393856658L626.0707885044478 306.7749393856658Q626.0707885044478 315.5156323392073 626.6049419627197 321.09996394841437L626.6049419627197 321.09996394841437L622.5745113230312 321.09996394841437Q621.1905682720538 307.64900868101995 619.0782341416146 301.09348896586386Q616.9901797138242 294.53796925070776 611.7457639416994 291.47872671696825Q606.5013481695745 288.41948418322875 595.6726007882426 288.41948418322875L595.6726007882426 288.41948418322875L586.227796457888 288.41948418322875L586.227796457888 387.89342593506035Q586.227796457888 395.22589613497564 587.6117395088654 398.5522153978511Q589.0199622624916 401.8785346607266 592.516239443908 403.092519793163Q596.0125166253247 404.330784628248 603.879140283512 404.6707004653301L603.879140283512 404.6707004653301L603.879140283512 408.1669776467468Q594.7985314928884 407.63282418847473 578.1912148811596 407.63282418847473L578.1912148811596 407.63282418847473Q560.7098289740768 407.63282418847473 552.3090518576174 408.1669776467468L552.3090518576174 408.1669776467468L552.3090518576174 404.6707004653301Q560.1756755158046 404.330784628248 563.6719526972213 403.092519793163Q567.1682298786379 401.8785346607266 568.5764526322641 398.5522153978511Q569.9603956832414 395.22589613497564 569.9603956832414 387.89342593506035L569.9603956832414 387.89342593506035L569.9603956832414 288.41948418322875L560.515591352887 288.41948418322875Q549.6868439715549 288.41948418322875 544.4424281994302 291.47872671696825Q539.1980124273052 294.53796925070776 537.1099579995148 301.09348896586386Q534.9976238690756 307.64900868101995 533.6136808180981 321.09996394841437L533.6136808180981 321.09996394841437L529.5832501784096 321.09996394841437Q530.1174036366816 315.5156323392073 530.1174036366816 306.7749393856658L530.1174036366816 306.7749393856658Q530.1174036366816 296.820261299688 528.8791388015966 284.3890535435402L528.8791388015966 284.3890535435402Q543.3984009855349 284.92320700181216 578.1912148811596 284.92320700181216L578.1912148811596 284.92320700181216Q612.7897911555946 284.92320700181216 627.3090533395329 284.3890535435402L627.3090533395329 284.3890535435402ZM684.2935154560935 284.3890535435402L684.2935154560935 287.88533072495676Q678.0050724700734 288.2495262646877 675.115787854875 289.2935534785829Q672.2265032396765 290.3375806924781 671.1824760257812 293.3239841182715Q670.1384488118861 296.2861078414161 670.1384488118861 302.938746367167L670.1384488118861 302.938746367167L670.1384488118861 389.64156452576856Q670.1384488118861 396.26992334887086 671.1824760257812 399.2563267746642Q672.2265032396765 402.2184504978088 675.115787854875 403.26247771170404Q678.0050724700734 404.330784628248 684.2935154560935 404.6707004653301L684.2935154560935 404.6707004653301L684.2935154560935 408.1669776467468Q676.2569338793651 407.63282418847473 662.1018672351576 407.63282418847473L662.1018672351576 407.63282418847473Q647.0484515929472 407.63282418847473 639.715981393032 408.1669776467468L639.715981393032 408.1669776467468L639.715981393032 404.6707004653301Q646.0044243790521 404.330784628248 648.8937089942506 403.26247771170404Q651.7829936094489 402.2184504978088 652.8270208233441 399.2563267746642Q653.8710480372395 396.26992334887086 653.8710480372395 389.64156452576856L653.8710480372395 389.64156452576856L653.8710480372395 302.938746367167Q653.8710480372395 296.2861078414161 652.8270208233441 293.3239841182715Q651.7829936094489 290.3375806924781 648.8937089942506 289.2935534785829Q646.0044243790521 288.2495262646877 639.715981393032 287.88533072495676L639.715981393032 287.88533072495676L639.715981393032 284.3890535435402Q647.0484515929472 284.92320700181216 662.1018672351576 284.92320700181216L662.1018672351576 284.92320700181216Q676.086975960824 284.92320700181216 684.2935154560935 284.3890535435402L684.2935154560935 284.3890535435402ZM755.0931283797793 281.96108327866756Q765.581959924029 281.96108327866756 772.9144301239444 284.92320700181216Q780.2711800265083 287.88533072495676 787.2637343893416 293.3239841182715L787.2637343893416 293.3239841182715Q789.181830898591 294.87788508778993 790.590053652217 294.87788508778993L790.590053652217 294.87788508778993Q794.0863308336336 294.87788508778993 795.130358047529 284.3890535435402L795.130358047529 284.3890535435402L799.1365089845685 284.3890535435402Q798.4566773104043 295.7519543831441 798.4566773104043 324.5962411298309L798.4566773104043 324.5962411298309L794.4262466707157 324.5962411298309Q792.5081501614663 313.23334029022703 790.9299694892991 308.2560012472381Q789.351788817132 303.2786622042492 785.6855537171743 298.7383578089374L785.6855537171743 298.7383578089374Q780.4411379450494 291.91576136464533 772.3074375577262 288.51660299382365Q764.173737170403 285.0931649203533 754.7532125426972 285.0931649203533L754.7532125426972 285.0931649203533Q743.3903117030932 285.0931649203533 734.8924157760389 292.6198727414584Q726.4187995516336 300.1223008599148 721.7085372377805 314.03457047763493Q716.973995221279 327.9225603927064 716.973995221279 346.6422111348744L716.973995221279 346.6422111348744Q716.973995221279 365.6774980114758 722.0484530748627 379.3226909000599Q727.1229109284466 392.96788378864403 736.130680611124 400.03327725942347Q745.1384502938015 407.12295043285144 756.5013511334055 407.12295043285144L756.5013511334055 407.12295043285144Q765.2420440869469 407.12295043285144 773.4485835822163 403.79663116997597Q781.6551230774858 400.4703119071005 786.3896650939873 393.8419530839982L786.3896650939873 393.8419530839982Q789.885942275404 388.93745314895557 791.4641229475712 383.3531215397485Q793.0180239170897 377.74451022789276 794.4262466707157 366.2116514697477L794.4262466707157 366.2116514697477L798.4566773104043 366.2116514697477Q798.4566773104043 396.26992334887086 799.1365089845685 408.1669776467468L799.1365089845685 408.1669776467468L795.130358047529 408.1669776467468Q794.596204589257 402.5826460375397 793.6492961859565 400.20323517796453Q792.6781080800074 397.848104021038 790.9299694892991 397.848104021038L790.9299694892991 397.848104021038Q789.5217467356731 397.848104021038 787.2637343893416 399.2563267746642L787.2637343893416 399.2563267746642Q779.3971107311543 404.8406583838712 772.2345984497799 407.72994299906964Q765.047806465757 410.6192276142681 754.9231704612382 410.6192276142681L754.9231704612382 410.6192276142681Q738.3158538495095 410.6192276142681 725.8118069854154 403.092519793163Q713.3077601213213 395.5900916747065 706.412324569083 381.3379062199042Q699.492609314196 367.0857207651019 699.492609314196 347.32204280903875L699.492609314196 347.32204280903875Q699.492609314196 328.09251831124755 706.5822824876241 313.23334029022703Q713.6719556610522 298.3741622692065 726.3459604436873 290.16762277393707Q739.0199652263225 281.96108327866756 755.0931283797793 281.96108327866756L755.0931283797793 281.96108327866756ZM925.0024875155657 284.3890535435402L925.0024875155657 287.88533072495676Q918.8840024480864 288.2495262646877 915.921878724942 289.73058812625993Q912.9597550017975 291.2116499878323 911.8914480852534 294.63508806130267Q910.8474208713583 298.03424643212435 910.8474208713583 304.68688495787535L910.8474208713583 304.68688495787535L910.8474208713583 357.30100059766517Q910.8474208713583 369.8778865697054 909.196401091245 378.8856562523829Q907.5211016084827 387.89342593506035 903.6849085899839 394.3518268396215L903.6849085899839 394.3518268396215Q899.3145621132132 401.8785346607266 890.8409458888077 406.2488811374974Q882.3673296644024 410.6192276142681 871.6842604989627 410.6192276142681L871.6842604989627 410.6192276142681Q852.4547360011716 410.6192276142681 842.3300999966527 401.1744232839136L842.3300999966527 401.1744232839136Q834.6334342570065 394.01191100253925 832.0112263709441 384.907022509267Q829.3890184848817 375.8264137186434 829.3890184848817 357.81087435328845L829.3890184848817 357.81087435328845L829.3890184848817 302.938746367167Q829.3890184848817 296.2861078414161 828.3449912709864 293.3239841182715Q827.3009640570913 290.3375806924781 824.4116794418928 289.2935534785829Q821.5223948266944 288.2495262646877 815.2339518406741 287.88533072495676L815.2339518406741 287.88533072495676L815.2339518406741 284.3890535435402Q822.5664220405895 284.92320700181216 837.5955579801512 284.92320700181216L837.5955579801512 284.92320700181216Q851.7749043270071 284.92320700181216 859.8114859037355 284.3890535435402L859.8114859037355 284.3890535435402L859.8114859037355 287.88533072495676Q853.5230429177154 288.2495262646877 850.6337583025172 289.2935534785829Q847.7444736873188 290.3375806924781 846.7004464734234 293.3239841182715Q845.6564192595281 296.2861078414161 845.6564192595281 302.938746367167L845.6564192595281 302.938746367167L845.6564192595281 360.7972777790818Q845.6564192595281 374.78238650474816 847.5745157687775 384.03295321391283Q849.4926122780269 393.30779962572626 855.5139785349111 398.89213123493323Q861.559624494444 404.50074254678907 873.2624411711299 404.50074254678907L873.2624411711299 404.50074254678907Q891.7878542921082 404.50074254678907 899.3145621132132 392.60368824891316Q906.8412699343185 380.730913653686 906.8412699343185 359.21909710691455L906.8412699343185 359.21909710691455L906.8412699343185 304.68688495787535Q906.8412699343185 295.24208062752086 903.4178318608479 291.7458034461042Q900.0186734900262 288.2495262646877 890.913784996754 287.88533072495676L890.913784996754 287.88533072495676L890.913784996754 284.3890535435402Q897.2265076854228 284.92320700181216 908.7593664435678 284.92320700181216L908.7593664435678 284.92320700181216Q919.2481979878175 284.92320700181216 925.0024875155657 284.3890535435402L925.0024875155657 284.3890535435402ZM1074.6625746423144 287.88533072495676Q1068.3498519536456 288.2495262646877 1065.4848470410957 289.2935534785829Q1062.5955624258975 290.3375806924781 1061.5515352120021 293.3239841182715Q1060.4832282954583 296.2861078414161 1060.4832282954583 302.938746367167L1060.4832282954583 302.938746367167L1060.4832282954583 389.64156452576856Q1060.4832282954583 396.26992334887086 1061.5515352120021 399.2563267746642Q1062.5955624258975 402.2184504978088 1065.4848470410957 403.26247771170404Q1068.3498519536456 404.330784628248 1074.6625746423144 404.6707004653301L1074.6625746423144 404.6707004653301L1074.6625746423144 408.1669776467468Q1066.6017133629373 407.63282418847473 1052.4466467187299 407.63282418847473L1052.4466467187299 407.63282418847473Q1037.4175107791682 407.63282418847473 1030.0850405792528 408.1669776467468L1030.0850405792528 408.1669776467468L1030.0850405792528 404.6707004653301Q1036.373483565273 404.330784628248 1039.2627681804715 403.26247771170404Q1042.1277730930212 402.2184504978088 1043.1960800095653 399.2563267746642Q1044.2401072234602 396.26992334887086 1044.2401072234602 389.64156452576856L1044.2401072234602 389.64156452576856L1044.2401072234602 295.9461920043339L1002.1148231279203 409.0410469421008L999.2983776206679 409.0410469421008L955.2549970158784 295.581996464603L955.2549970158784 387.89342593506035Q955.2549970158784 394.71602237935235 956.3961430403688 398.0180619395792Q957.5372890648589 401.34438120245466 960.8393286250857 402.8254430640269Q964.1656478879611 404.330784628248 971.1582022507944 404.6707004653301L971.1582022507944 404.6707004653301L971.1582022507944 408.1669776467468Q964.8697592647741 407.63282418847473 953.336900506629 407.63282418847473L953.336900506629 407.63282418847473Q942.8480689623796 407.63282418847473 937.0694997319827 408.1669776467468L937.0694997319827 408.1669776467468L937.0694997319827 404.6707004653301Q943.1879847994617 404.330784628248 946.1743882252549 402.8254430640269Q949.1365119483996 401.34438120245466 950.1805391622947 397.9452228316329Q951.2245663761898 394.52178475816254 951.2245663761898 387.89342593506035L951.2245663761898 387.89342593506035L951.2245663761898 302.938746367167Q951.2245663761898 296.2861078414161 950.1805391622947 293.3239841182715Q949.1365119483996 290.3375806924781 946.2472273332012 289.2935534785829Q943.3579427180027 288.2495262646877 937.0694997319827 287.88533072495676L937.0694997319827 287.88533072495676L937.0694997319827 284.3890535435402Q942.8480689623796 284.92320700181216 953.336900506629 284.92320700181216L953.336900506629 284.92320700181216Q962.4175092972528 284.92320700181216 968.1960785276497 284.3890535435402L968.1960785276497 284.3890535435402L1006.6551275232321 385.61113388608L1044.2401072234602 284.92320700181216L1052.4466467187299 284.92320700181216Q1066.6017133629373 284.92320700181216 1074.6625746423144 284.3890535435402L1074.6625746423144 284.3890535435402L1074.6625746423144 287.88533072495676Z " fill="#f8f9fa" transform="matrix(0.851902905531053,0,0,0.851902905531053,-40.50816194984813,14.085004552966666)"/><path d="MNaN 335.6192235390007 " fill="#f8f9fa" transform="matrix(0.851902905531053,0,0,0.851902905531053,-40.50816194984813,14.085004552966666)"/></g></svg>